          _______  _______  _______  _        _        _______  _______ 
|     /|(  ____ (  ____ )(  ___  )|     /(       (  ____ (  ____ )
| )   ( || (    /| (    )|| (   ) ||    / /| (      | (    /| (    )|
| (___) || (__    | (____)|| (___) ||  (_/ / | |      | (__    | (____)|
|  ___  ||  __)   |     __)|  ___  ||   _ (  | |      |  __)   |     __)
| (   ) || (      | ( (   | (   ) ||  (   | |      | (      | ( (   
| )   ( || (____/| )  __| )   ( ||  /   | (____/| (____/| )  __
|/     |(_______/|/   __/|/     ||_/    /(_______/(_______/|/   __/
                                                                        

==================================================
Please seed after your download completes , thanks 
==================================================


Format                           : Matroska
File size                        : 794 MiB
Duration                         : 2h 28mn
Overall bit rate                 : 749 Kbps
Movie name                       : Inception (2010) 720p BRRip x264 [Herakler-Vnsharing.net]
Encoded date                     : UTC 2010-11-21 10:18:41
Encoder                          : Herakler - Vnsharing.net
Writing application              : mkvmerge v3.2.0 ('Beginnings') built on Feb 12 2010 16:46:17
Writing library                  : libebml v0.7.9 + libmatroska v0.8.1

Video
ID                               : 1
Format                           : AVC
Format/Info                      : Advanced Video Codec
Format profile                   : High@L4.0
Format settings, CABAC           : Yes
Format settings, ReFrames        : 3 frames
Codec ID                         : V_MPEG4/ISO/AVC
Duration                         : 2h 28mn
Bit rate mode                    : Variable
Bit rate                         : 690 Kbps
Maximum bit rate                 : 25.0 Mbps
Width                            : 1 280 pixels
Height                           : 536 pixels
Display aspect ratio             : 2.35:1
Frame rate                       : 23.976 fps
Color space                      : YUV
Chroma subsampling               : 4:2:0
Bit depth                        : 8 bits
Scan type                        : Progressive
Bits/(Pixel*Frame)               : 0.042
Stream size                      : 710 MiB (89%)
Writing library                  : x264 core 105 r1732 2b04482

Audio
ID                               : 2
Format                           : Vorbis
Format settings, Floor           : 1
Codec ID                         : A_VORBIS
Duration                         : 2h 28mn
Bit rate mode                    : Constant
Channel(s)                       : 2 channels
Sampling rate                    : 48.0 KHz
Stream size                      : 67.8 MiB (9%)
Writing library                  : aoTuV b5d  (UTC 2009-03-01)

Sub #1
ID                               : 3
Format                           : UTF-8
Codec ID                         : S_TEXT/UTF8
Codec ID/Info                    : UTF-8 Plain Text
Language                         : Vietnamese

Sub #2
ID                               : 4
Format                           : UTF-8
Codec ID                         : S_TEXT/UTF8
Codec ID/Info                    : UTF-8 Plain Text
Language                         : English

Screenshot
http://img545.imageshack.us/img545/8605/inception2010720pbrripx.jpg